<mxfile host="app.diagrams.net" modified="2023-03-23T12:26:23.286Z" agent="5.0 (Macintosh; Intel Mac OS X 10_15_7) AppleWebKit/537.36 (KHTML, like Gecko) Chrome/106.0.0.0 Safari/537.36" etag="k7s2WVB54V9oGhpT76mY" version="20.8.23" type="github" pages="3">
  <diagram name="ecomApp" id="p9dmT6tiXuSjIRmkHMnN">
    <mxGraphModel dx="984" dy="578" grid="1" gridSize="10" guides="1" tooltips="1" connect="1" arrows="1" fold="1" page="1" pageScale="1" pageWidth="827" pageHeight="1169" math="0" shadow="0">
      <root>
        <mxCell id="0" />
        <mxCell id="1" parent="0" />
        <mxCell id="xnbS68DbsSneWo_SMjUm-6" value="Postgres" style="shape=cylinder3;whiteSpace=wrap;html=1;boundedLbl=1;backgroundOutline=1;size=15;" parent="1" vertex="1">
          <mxGeometry x="70" y="305" width="90" height="40" as="geometry" />
        </mxCell>
        <mxCell id="xnbS68DbsSneWo_SMjUm-7" value="Order History Service" style="rounded=0;whiteSpace=wrap;html=1;" parent="1" vertex="1">
          <mxGeometry x="10" y="195" width="80" height="25" as="geometry" />
        </mxCell>
        <mxCell id="xnbS68DbsSneWo_SMjUm-8" value="" style="endArrow=classic;html=1;rounded=0;exitX=0.5;exitY=1;exitDx=0;exitDy=0;entryX=0.5;entryY=0;entryDx=0;entryDy=0;entryPerimeter=0;" parent="1" source="xnbS68DbsSneWo_SMjUm-7" target="xnbS68DbsSneWo_SMjUm-6" edge="1">
          <mxGeometry width="50" height="50" relative="1" as="geometry">
            <mxPoint x="275" y="345" as="sourcePoint" />
            <mxPoint x="325" y="295" as="targetPoint" />
          </mxGeometry>
        </mxCell>
        <mxCell id="xnbS68DbsSneWo_SMjUm-15" value="Customer" style="rounded=1;whiteSpace=wrap;html=1;" parent="1" vertex="1">
          <mxGeometry x="60" y="10" width="120" height="30" as="geometry" />
        </mxCell>
        <mxCell id="xnbS68DbsSneWo_SMjUm-22" value="Load Balancer" style="rounded=0;whiteSpace=wrap;html=1;" parent="1" vertex="1">
          <mxGeometry x="20" y="90" width="60" height="30" as="geometry" />
        </mxCell>
        <mxCell id="xnbS68DbsSneWo_SMjUm-26" value="Order placement Service" style="rounded=0;whiteSpace=wrap;html=1;" parent="1" vertex="1">
          <mxGeometry x="118" y="190" width="100" height="30" as="geometry" />
        </mxCell>
        <mxCell id="xnbS68DbsSneWo_SMjUm-30" value="Load Balancer" style="rounded=0;whiteSpace=wrap;html=1;" parent="1" vertex="1">
          <mxGeometry x="138" y="90" width="70" height="30" as="geometry" />
        </mxCell>
        <mxCell id="xnbS68DbsSneWo_SMjUm-32" value="Redis (Copy)" style="rounded=0;whiteSpace=wrap;html=1;" parent="1" vertex="1">
          <mxGeometry x="55" y="385" width="120" height="20" as="geometry" />
        </mxCell>
        <mxCell id="xnbS68DbsSneWo_SMjUm-39" value="" style="endArrow=classic;html=1;rounded=0;exitX=0.5;exitY=1;exitDx=0;exitDy=0;exitPerimeter=0;entryX=0.5;entryY=0;entryDx=0;entryDy=0;" parent="1" source="xnbS68DbsSneWo_SMjUm-6" target="xnbS68DbsSneWo_SMjUm-32" edge="1">
          <mxGeometry width="50" height="50" relative="1" as="geometry">
            <mxPoint x="15" y="325" as="sourcePoint" />
            <mxPoint x="65" y="275" as="targetPoint" />
          </mxGeometry>
        </mxCell>
        <mxCell id="xnbS68DbsSneWo_SMjUm-40" value="" style="endArrow=classic;html=1;rounded=0;exitX=0.5;exitY=1;exitDx=0;exitDy=0;entryX=0.5;entryY=0;entryDx=0;entryDy=0;entryPerimeter=0;" parent="1" source="xnbS68DbsSneWo_SMjUm-26" target="xnbS68DbsSneWo_SMjUm-6" edge="1">
          <mxGeometry width="50" height="50" relative="1" as="geometry">
            <mxPoint x="70" y="335" as="sourcePoint" />
            <mxPoint x="120" y="285" as="targetPoint" />
          </mxGeometry>
        </mxCell>
        <mxCell id="xnbS68DbsSneWo_SMjUm-42" value="Postgres" style="shape=cylinder3;whiteSpace=wrap;html=1;boundedLbl=1;backgroundOutline=1;size=15;" parent="1" vertex="1">
          <mxGeometry x="249" y="305" width="90" height="40" as="geometry" />
        </mxCell>
        <mxCell id="xnbS68DbsSneWo_SMjUm-43" value="Payment Service" style="rounded=0;whiteSpace=wrap;html=1;" parent="1" vertex="1">
          <mxGeometry x="251" y="190" width="84" height="30" as="geometry" />
        </mxCell>
        <mxCell id="xnbS68DbsSneWo_SMjUm-44" value="" style="endArrow=classic;html=1;rounded=0;exitX=0.5;exitY=1;exitDx=0;exitDy=0;entryX=0.5;entryY=0;entryDx=0;entryDy=0;entryPerimeter=0;" parent="1" source="xnbS68DbsSneWo_SMjUm-43" target="xnbS68DbsSneWo_SMjUm-42" edge="1">
          <mxGeometry width="50" height="50" relative="1" as="geometry">
            <mxPoint x="506" y="365" as="sourcePoint" />
            <mxPoint x="556" y="315" as="targetPoint" />
          </mxGeometry>
        </mxCell>
        <mxCell id="xnbS68DbsSneWo_SMjUm-45" value="" style="endArrow=classic;html=1;rounded=0;exitX=1;exitY=0.5;exitDx=0;exitDy=0;entryX=0;entryY=0.5;entryDx=0;entryDy=0;" parent="1" source="xnbS68DbsSneWo_SMjUm-26" target="xnbS68DbsSneWo_SMjUm-43" edge="1">
          <mxGeometry width="50" height="50" relative="1" as="geometry">
            <mxPoint x="26" y="335" as="sourcePoint" />
            <mxPoint x="306" y="200" as="targetPoint" />
          </mxGeometry>
        </mxCell>
        <mxCell id="xnbS68DbsSneWo_SMjUm-46" value="Postgres" style="shape=cylinder3;whiteSpace=wrap;html=1;boundedLbl=1;backgroundOutline=1;size=15;" parent="1" vertex="1">
          <mxGeometry x="355" y="305" width="90" height="40" as="geometry" />
        </mxCell>
        <mxCell id="xnbS68DbsSneWo_SMjUm-47" value="warehouse Service" style="rounded=0;whiteSpace=wrap;html=1;" parent="1" vertex="1">
          <mxGeometry x="355" y="190" width="90" height="30" as="geometry" />
        </mxCell>
        <mxCell id="xnbS68DbsSneWo_SMjUm-48" value="" style="endArrow=classic;html=1;rounded=0;exitX=0.5;exitY=1;exitDx=0;exitDy=0;entryX=0.5;entryY=0;entryDx=0;entryDy=0;entryPerimeter=0;" parent="1" source="xnbS68DbsSneWo_SMjUm-47" target="xnbS68DbsSneWo_SMjUm-46" edge="1">
          <mxGeometry width="50" height="50" relative="1" as="geometry">
            <mxPoint x="650" y="365" as="sourcePoint" />
            <mxPoint x="700" y="315" as="targetPoint" />
          </mxGeometry>
        </mxCell>
        <mxCell id="k-mtX_0l9Irp5TsBbtiF-3" value="" style="edgeStyle=elbowEdgeStyle;elbow=vertical;endArrow=classic;html=1;curved=0;rounded=0;endSize=8;startSize=8;exitX=1;exitY=0.5;exitDx=0;exitDy=0;entryX=0.5;entryY=0;entryDx=0;entryDy=0;" parent="1" source="xnbS68DbsSneWo_SMjUm-26" target="xnbS68DbsSneWo_SMjUm-47" edge="1">
          <mxGeometry width="50" height="50" relative="1" as="geometry">
            <mxPoint x="390" y="345" as="sourcePoint" />
            <mxPoint x="440" y="295" as="targetPoint" />
            <Array as="points">
              <mxPoint x="410" y="165" />
            </Array>
          </mxGeometry>
        </mxCell>
        <mxCell id="k-mtX_0l9Irp5TsBbtiF-6" value="" style="endArrow=classic;startArrow=classic;html=1;rounded=0;entryX=0.5;entryY=1;entryDx=0;entryDy=0;" parent="1" source="xnbS68DbsSneWo_SMjUm-7" target="xnbS68DbsSneWo_SMjUm-22" edge="1">
          <mxGeometry width="50" height="50" relative="1" as="geometry">
            <mxPoint x="390" y="345" as="sourcePoint" />
            <mxPoint x="80" y="145" as="targetPoint" />
          </mxGeometry>
        </mxCell>
        <mxCell id="k-mtX_0l9Irp5TsBbtiF-7" value="" style="endArrow=classic;startArrow=classic;html=1;rounded=0;entryX=0.5;entryY=1;entryDx=0;entryDy=0;exitX=0.5;exitY=0;exitDx=0;exitDy=0;" parent="1" source="xnbS68DbsSneWo_SMjUm-26" target="xnbS68DbsSneWo_SMjUm-30" edge="1">
          <mxGeometry width="50" height="50" relative="1" as="geometry">
            <mxPoint x="68" y="205" as="sourcePoint" />
            <mxPoint x="198" y="145" as="targetPoint" />
          </mxGeometry>
        </mxCell>
        <mxCell id="k-mtX_0l9Irp5TsBbtiF-8" value="" style="endArrow=classic;startArrow=classic;html=1;rounded=0;entryX=0.5;entryY=1;entryDx=0;entryDy=0;exitX=0.5;exitY=0;exitDx=0;exitDy=0;" parent="1" source="xnbS68DbsSneWo_SMjUm-22" target="xnbS68DbsSneWo_SMjUm-15" edge="1">
          <mxGeometry width="50" height="50" relative="1" as="geometry">
            <mxPoint x="100" y="190" as="sourcePoint" />
            <mxPoint x="100" y="140" as="targetPoint" />
          </mxGeometry>
        </mxCell>
        <mxCell id="k-mtX_0l9Irp5TsBbtiF-9" value="" style="endArrow=classic;startArrow=classic;html=1;rounded=0;exitX=0.5;exitY=0;exitDx=0;exitDy=0;entryX=0.5;entryY=1;entryDx=0;entryDy=0;" parent="1" source="xnbS68DbsSneWo_SMjUm-30" target="xnbS68DbsSneWo_SMjUm-15" edge="1">
          <mxGeometry width="50" height="50" relative="1" as="geometry">
            <mxPoint x="90" y="100" as="sourcePoint" />
            <mxPoint x="250" y="50" as="targetPoint" />
          </mxGeometry>
        </mxCell>
        <mxCell id="k-mtX_0l9Irp5TsBbtiF-10" value="Kafka Q" style="sketch=0;outlineConnect=0;fontColor=#232F3E;gradientColor=none;strokeColor=#232F3E;fillColor=#ffffff;dashed=0;verticalLabelPosition=bottom;verticalAlign=top;align=center;html=1;fontSize=12;fontStyle=0;aspect=fixed;shape=mxgraph.aws4.resourceIcon;resIcon=mxgraph.aws4.queue;" parent="1" vertex="1">
          <mxGeometry x="460" y="230" width="40" height="40" as="geometry" />
        </mxCell>
        <mxCell id="k-mtX_0l9Irp5TsBbtiF-14" value="" style="edgeStyle=elbowEdgeStyle;elbow=vertical;endArrow=classic;html=1;curved=0;rounded=0;endSize=8;startSize=8;exitX=1;exitY=0.75;exitDx=0;exitDy=0;" parent="1" source="xnbS68DbsSneWo_SMjUm-26" target="k-mtX_0l9Irp5TsBbtiF-10" edge="1">
          <mxGeometry width="50" height="50" relative="1" as="geometry">
            <mxPoint x="370" y="135" as="sourcePoint" />
            <mxPoint x="570" y="315" as="targetPoint" />
            <Array as="points">
              <mxPoint x="470" y="155" />
            </Array>
          </mxGeometry>
        </mxCell>
      </root>
    </mxGraphModel>
  </diagram>
  <diagram id="DFTiOkRhUZMD8kJ-3561" name="BookmyShow">
    <mxGraphModel dx="984" dy="578" grid="1" gridSize="10" guides="1" tooltips="1" connect="1" arrows="1" fold="1" page="1" pageScale="1" pageWidth="827" pageHeight="1169" math="0" shadow="0">
      <root>
        <mxCell id="0" />
        <mxCell id="1" parent="0" />
      </root>
    </mxGraphModel>
  </diagram>
  <diagram id="apcb7M1n_-CD_dulpvoW" name="IRCTC">
    <mxGraphModel dx="1093" dy="642" grid="1" gridSize="10" guides="1" tooltips="1" connect="1" arrows="1" fold="1" page="1" pageScale="1" pageWidth="827" pageHeight="1169" math="0" shadow="0">
      <root>
        <mxCell id="0" />
        <mxCell id="1" parent="0" />
        <mxCell id="5wQ3V6zBG_wFNwJXSOrP-1" value="FE&lt;br&gt;What user is looking&amp;nbsp;" style="rounded=0;whiteSpace=wrap;html=1;" vertex="1" parent="1">
          <mxGeometry x="90" y="210" width="120" height="100" as="geometry" />
        </mxCell>
        <mxCell id="5wQ3V6zBG_wFNwJXSOrP-2" value="Backend" style="rounded=1;whiteSpace=wrap;html=1;" vertex="1" parent="1">
          <mxGeometry x="280" y="200" width="120" height="60" as="geometry" />
        </mxCell>
        <mxCell id="5wQ3V6zBG_wFNwJXSOrP-3" value="&lt;br&gt;admin user page" style="rounded=0;whiteSpace=wrap;html=1;" vertex="1" parent="1">
          <mxGeometry x="90" y="340" width="120" height="40" as="geometry" />
        </mxCell>
        <mxCell id="5wQ3V6zBG_wFNwJXSOrP-4" value="analyst" style="rounded=0;whiteSpace=wrap;html=1;" vertex="1" parent="1">
          <mxGeometry x="90" y="430" width="120" height="30" as="geometry" />
        </mxCell>
        <mxCell id="5wQ3V6zBG_wFNwJXSOrP-5" value="end users" style="rounded=0;whiteSpace=wrap;html=1;" vertex="1" parent="1">
          <mxGeometry x="90" y="390" width="120" height="30" as="geometry" />
        </mxCell>
        <mxCell id="5wQ3V6zBG_wFNwJXSOrP-7" value="React" style="text;html=1;strokeColor=none;fillColor=none;align=center;verticalAlign=middle;whiteSpace=wrap;rounded=0;" vertex="1" parent="1">
          <mxGeometry x="120" y="490" width="60" height="30" as="geometry" />
        </mxCell>
        <mxCell id="5wQ3V6zBG_wFNwJXSOrP-8" value="Node, spring" style="text;html=1;strokeColor=none;fillColor=none;align=center;verticalAlign=middle;whiteSpace=wrap;rounded=0;" vertex="1" parent="1">
          <mxGeometry x="320" y="490" width="60" height="30" as="geometry" />
        </mxCell>
        <mxCell id="5wQ3V6zBG_wFNwJXSOrP-9" value="&lt;br&gt;admin user service" style="rounded=0;whiteSpace=wrap;html=1;" vertex="1" parent="1">
          <mxGeometry x="280" y="340" width="120" height="40" as="geometry" />
        </mxCell>
        <mxCell id="5wQ3V6zBG_wFNwJXSOrP-10" value="analyst service" style="rounded=0;whiteSpace=wrap;html=1;" vertex="1" parent="1">
          <mxGeometry x="280" y="430" width="120" height="30" as="geometry" />
        </mxCell>
        <mxCell id="5wQ3V6zBG_wFNwJXSOrP-11" value="end users service" style="rounded=0;whiteSpace=wrap;html=1;" vertex="1" parent="1">
          <mxGeometry x="280" y="390" width="120" height="30" as="geometry" />
        </mxCell>
        <mxCell id="5wQ3V6zBG_wFNwJXSOrP-12" value="Database" style="rounded=1;whiteSpace=wrap;html=1;" vertex="1" parent="1">
          <mxGeometry x="550" y="200" width="120" height="60" as="geometry" />
        </mxCell>
        <mxCell id="5wQ3V6zBG_wFNwJXSOrP-17" value="Master DB" style="shape=cylinder3;whiteSpace=wrap;html=1;boundedLbl=1;backgroundOutline=1;size=15;" vertex="1" parent="1">
          <mxGeometry x="590" y="280" width="60" height="80" as="geometry" />
        </mxCell>
        <mxCell id="5wQ3V6zBG_wFNwJXSOrP-18" value="Admin DB" style="shape=cylinder3;whiteSpace=wrap;html=1;boundedLbl=1;backgroundOutline=1;size=15;" vertex="1" parent="1">
          <mxGeometry x="620" y="350" width="60" height="80" as="geometry" />
        </mxCell>
        <mxCell id="5wQ3V6zBG_wFNwJXSOrP-19" value="Cache" style="swimlane;horizontal=0;whiteSpace=wrap;html=1;startSize=30;" vertex="1" parent="1">
          <mxGeometry x="440" y="250" width="70" height="220" as="geometry" />
        </mxCell>
        <mxCell id="5wQ3V6zBG_wFNwJXSOrP-20" value="Event System between services" style="shape=step;perimeter=stepPerimeter;whiteSpace=wrap;html=1;fixedSize=1;" vertex="1" parent="1">
          <mxGeometry x="370" y="90" width="120" height="40" as="geometry" />
        </mxCell>
        <mxCell id="5wQ3V6zBG_wFNwJXSOrP-21" value="Kafka, SNA, SMS" style="text;html=1;strokeColor=none;fillColor=none;align=center;verticalAlign=middle;whiteSpace=wrap;rounded=0;" vertex="1" parent="1">
          <mxGeometry x="390" y="40" width="60" height="30" as="geometry" />
        </mxCell>
        <mxCell id="5wQ3V6zBG_wFNwJXSOrP-22" value="availability&lt;br&gt;consistency&lt;br&gt;" style="text;html=1;strokeColor=none;fillColor=none;align=center;verticalAlign=middle;whiteSpace=wrap;rounded=0;" vertex="1" parent="1">
          <mxGeometry x="720" y="30" width="60" height="30" as="geometry" />
        </mxCell>
        <mxCell id="5wQ3V6zBG_wFNwJXSOrP-23" value="SAGA Pattern&lt;br&gt;adaptors and ports for each service&lt;br&gt;" style="shape=trapezoid;perimeter=trapezoidPerimeter;whiteSpace=wrap;html=1;fixedSize=1;" vertex="1" parent="1">
          <mxGeometry x="240" y="554.5" width="200" height="45.5" as="geometry" />
        </mxCell>
        <mxCell id="5wQ3V6zBG_wFNwJXSOrP-25" value="CAP" style="text;html=1;strokeColor=none;fillColor=none;align=center;verticalAlign=middle;whiteSpace=wrap;rounded=0;" vertex="1" parent="1">
          <mxGeometry x="610" y="490" width="60" height="30" as="geometry" />
        </mxCell>
        <mxCell id="5wQ3V6zBG_wFNwJXSOrP-26" value="DB replica" style="rounded=1;whiteSpace=wrap;html=1;" vertex="1" parent="1">
          <mxGeometry x="650" y="230" width="120" height="60" as="geometry" />
        </mxCell>
        <mxCell id="5wQ3V6zBG_wFNwJXSOrP-27" value="Load Balancer" style="rounded=0;whiteSpace=wrap;html=1;" vertex="1" parent="1">
          <mxGeometry x="90" y="110" width="230" height="60" as="geometry" />
        </mxCell>
      </root>
    </mxGraphModel>
  </diagram>
</mxfile>
